HIERARCHY
ROOT Hips
{
	OFFSET 0.000000 0.000000 0.000000
	CHANNELS 6 Xposition Yposition Zposition Zrotation Yrotation Xrotation 
	JOINT LeftUpLeg_virtual
	{
		OFFSET 0.000000 0.000000 0.000000
		CHANNELS 3 Zrotation Yrotation Xrotation
		JOINT LeftUpLeg
		{
			OFFSET 10.205400 -3.823500 0.155100
			CHANNELS 3 Zrotation Yrotation Xrotation
			JOINT LeftLeg
			{
				OFFSET 0.708757 -12.982077 0.567790
				CHANNELS 3 Zrotation Yrotation Xrotation
				JOINT LeftFoot
				{
					OFFSET -0.708756 -10.717838 -2.184338
					CHANNELS 3 Zrotation Yrotation Xrotation
					JOINT LeftToeBase
					{
						OFFSET 0.108149 -7.191104 7.560241
						CHANNELS 3 Zrotation Yrotation Xrotation
						End Site
						{
							OFFSET 0.000000 0.000000 0.000000
						}
					}
				}
			}
		}
	}
	JOINT RightUpLeg_virtual
	{
		OFFSET 0.000000 0.000000 0.000000
		CHANNELS 3 Zrotation Yrotation Xrotation
		JOINT RightUpLeg
		{
			OFFSET -10.205400 -3.823500 0.005500
			CHANNELS 3 Zrotation Yrotation Xrotation
			JOINT RightLeg
			{
				OFFSET -0.708756 -12.982134 0.610632
				CHANNELS 3 Zrotation Yrotation Xrotation
				JOINT RightFoot
				{
					OFFSET 0.708754 -10.717769 -1.945823
					CHANNELS 3 Zrotation Yrotation Xrotation
					JOINT RightToeBase
					{
						OFFSET -0.108140 -7.191069 7.372968
						CHANNELS 3 Zrotation Yrotation Xrotation
						End Site
						{
							OFFSET 0.000000 0.000000 0.000000
						}
					}
				}
			}
		}
	}
	JOINT Spine_virtual
	{
		OFFSET 0.000000 0.000000 0.000000
		CHANNELS 3 Zrotation Yrotation Xrotation
		JOINT Spine
		{
			OFFSET 0.000000 6.876099 0.125700
			CHANNELS 3 Zrotation Yrotation Xrotation
			JOINT Spine1
			{
				OFFSET 0.000000 8.022060 0.146608
				CHANNELS 3 Zrotation Yrotation Xrotation
				JOINT Spine2
				{
					OFFSET 0.000000 9.168068 0.167552
					CHANNELS 3 Zrotation Yrotation Xrotation
					JOINT Neck_virtual
					{
						OFFSET 0.000000 0.000000 0.000000
						CHANNELS 3 Zrotation Yrotation Xrotation
						JOINT Neck
						{
							OFFSET 0.000000 10.314075 0.188496
							CHANNELS 3 Zrotation Yrotation Xrotation
							JOINT Head
							{
								OFFSET 0.000000 7.643700 -2.377400
								CHANNELS 3 Zrotation Yrotation Xrotation
								End Site
								{
									OFFSET 0.000000 0.000000 0.000000
								}
							}
						}
					}
					JOINT LeftShoulder_virtual
					{
						OFFSET 0.000000 0.000000 0.000000
						CHANNELS 3 Zrotation Yrotation Xrotation
						JOINT LeftShoulder
						{
							OFFSET 4.392200 8.824978 0.174984
							CHANNELS 3 Zrotation Yrotation Xrotation
							JOINT LeftArm
							{
								OFFSET 8.771219 -2.981674 -0.026999
								CHANNELS 3 Zrotation Yrotation Xrotation
								JOINT LeftForeArm
								{
									OFFSET 8.512804 0.000000 -0.000000
									CHANNELS 3 Zrotation Yrotation Xrotation
									JOINT LeftHand
									{
										OFFSET 18.484802 0.000000 -0.000000
										CHANNELS 3 Zrotation Yrotation Xrotation
										End Site
										{
											OFFSET 0.000000 0.000000 0.000000
										}
									}
								}
							}
						}
					}
					JOINT RightShoulder_virtual
					{
						OFFSET 0.000000 0.000000 0.000000
						CHANNELS 3 Zrotation Yrotation Xrotation
						JOINT RightShoulder
						{
							OFFSET -4.392200 8.824993 0.141379
							CHANNELS 3 Zrotation Yrotation Xrotation
							JOINT RightArm
							{
								OFFSET -8.771282 -2.981682 -0.094208
								CHANNELS 3 Zrotation Yrotation Xrotation
								JOINT RightForeArm
								{
									OFFSET -8.494598 0.000000 0.000000
									CHANNELS 3 Zrotation Yrotation Xrotation
									JOINT RightHand
									{
										OFFSET -18.483803 0.000000 0.000001
										CHANNELS 3 Zrotation Yrotation Xrotation
										End Site
										{
											OFFSET 0.000000 0.000000 0.000000
										}
									}
								}
							}
						}
					}
				}
			}
		}
	}
}
MOTION
Frames: 11
Frame Time: 0.033333
-2.030780 36.085712 7.338050 -179.928138 7.023547 179.952262 -2.935211 -3.315648 9.708720 -9.700191 1.338613 -16.397450 14.529802 4.750511 18.851394 0.926249 -1.026023 3.253571 0.000000 0.000000 0.000000 1.002298 -1.445106 8.776499 -0.321973 1.325759 -13.527762 -7.947010 1.399944 13.771187 6.640183 1.258767 8.628806 0.000000 0.000000 0.000000 1.211176 0.338669 -1.697547 -3.092360 1.789425 -7.076661 -0.109993 -3.472916 3.136871 -0.017972 -0.004611 -0.017866 -0.364341 -1.942908 6.143039 -6.696182 6.307809 12.299619 0.000000 0.000000 0.000000 1.210600 -1.104834 2.935377 -6.033559 0.665040 -8.096257 -0.062923 6.472438 -40.153388 -0.780866 -41.632083 -0.480580 0.000000 0.000000 0.000000 -2.400017 -0.327218 2.588235 19.242438 -5.806881 -19.536001 5.970146 -5.264698 -40.143269 2.404759 31.060610 1.849422 0.000000 0.000000 0.000000 
-2.006467 36.081486 7.266978 -179.943082 7.051235 179.848347 -3.019474 -3.342165 9.968620 -9.452824 1.197012 -16.210716 14.748748 4.456424 18.822074 1.031169 -0.908398 2.652702 0.000000 0.000000 0.000000 1.092840 -1.465685 8.838169 -0.338123 0.794513 -13.566116 -8.149541 2.439043 13.568769 6.423433 1.088499 8.775061 0.000000 0.000000 0.000000 1.168502 0.357606 -1.600406 -3.157078 1.807840 -7.056700 -0.122777 -3.456550 3.134161 -0.013008 0.005492 -0.037800 -0.375503 -1.932950 6.105502 -6.693541 6.306239 12.297497 0.000000 0.000000 0.000000 1.222937 -1.072287 2.881213 -5.970621 0.756367 -8.103319 0.311127 6.457356 -40.425670 -0.791623 -41.758725 -0.473223 0.000000 0.000000 0.000000 -2.420437 -0.326262 2.555109 19.196522 -5.822587 -19.614867 5.890833 -5.326637 -40.261469 2.545353 31.099620 2.043689 0.000000 0.000000 0.000000 
-1.977131 36.081623 7.170246 -179.937796 6.980592 179.936853 -3.070938 -3.442871 10.067132 -9.358799 1.184208 -16.250528 14.755136 4.400534 18.970765 1.026776 -0.905673 2.449627 0.000000 0.000000 0.000000 1.092482 -1.365090 8.930246 -0.242754 0.574652 -13.568828 -8.141711 2.527256 13.554337 6.371271 1.056677 8.708854 0.000000 0.000000 0.000000 1.119573 0.354932 -1.646299 -3.278044 1.822450 -7.155017 -0.139668 -3.438669 3.114636 -0.014040 0.009612 -0.024861 -0.407009 -1.908523 6.123760 -6.692143 6.264636 12.298476 0.000000 0.000000 0.000000 1.196734 -1.063386 2.898658 -5.899162 0.889270 -8.229942 1.045218 6.526759 -40.927730 -1.008916 -41.941473 -0.229814 0.000000 0.000000 0.000000 -2.445345 -0.324225 2.569243 19.181116 -5.847046 -19.620881 5.771582 -5.502039 -40.303341 2.483645 31.027644 2.163916 0.000000 0.000000 0.000000 
-1.954167 36.078594 7.074165 -179.926171 6.850466 -179.900844 -3.061704 -3.620210 10.118665 -9.305729 1.097945 -16.299545 14.766541 4.402049 19.128951 1.054240 -0.878952 2.296216 0.000000 0.000000 0.000000 1.109033 -1.312248 9.010235 -0.168498 0.499366 -13.547976 -8.150110 2.544702 13.565954 6.268736 1.015764 8.593835 0.000000 0.000000 0.000000 1.108661 0.304931 -1.713245 -3.417881 1.817732 -7.285535 -0.149941 -3.422913 3.105341 -0.006715 0.006859 0.011683 -0.428514 -1.832916 6.159735 -6.661713 6.232195 12.339194 0.000000 0.000000 0.000000 1.183069 -1.070111 2.926591 -5.824361 1.041401 -8.217725 2.033856 6.688183 -41.293196 -1.010823 -42.123348 -0.188496 0.000000 0.000000 0.000000 -2.455795 -0.346459 2.610852 19.233304 -5.880363 -19.662045 5.664834 -5.759911 -40.504145 2.459992 30.822123 2.173514 0.000000 0.000000 0.000000 
-1.938775 36.075333 6.983109 -179.933793 6.965185 -179.877622 -3.110894 -3.507579 10.191839 -9.263459 1.089233 -16.323918 14.747260 4.313157 19.302304 1.068157 -0.874378 2.123339 0.000000 0.000000 0.000000 1.095244 -1.092517 9.067626 -0.082960 0.356111 -13.419650 -8.159218 2.785584 13.621578 6.144946 0.965800 8.361222 0.000000 0.000000 0.000000 1.086624 0.320092 -1.719653 -3.568320 1.826364 -7.384011 -0.156176 -3.405750 3.114765 -0.003387 0.012791 0.010842 -0.460348 -1.818435 6.222721 -6.591031 6.179512 12.404733 0.000000 0.000000 0.000000 1.163625 -1.023027 2.965171 -5.818362 1.269092 -8.225538 3.043451 6.944166 -41.518572 -1.049363 -42.313206 -0.077424 0.000000 0.000000 0.000000 -2.458413 -0.257745 2.681921 19.304442 -5.841317 -19.779101 5.492712 -6.177910 -40.703529 2.525555 30.651324 2.396694 0.000000 0.000000 0.000000 
-1.928745 36.073940 6.900658 -179.923521 6.955362 -179.885668 -3.140101 -3.556130 10.230013 -9.236411 1.047336 -16.274587 14.738911 4.245812 19.472967 1.114782 -0.842507 1.978080 0.000000 0.000000 0.000000 1.118915 -1.115644 9.077999 -0.061234 0.324200 -13.268457 -8.159195 2.988849 13.718953 6.031770 0.932013 8.174975 0.000000 0.000000 0.000000 1.086616 0.250271 -1.739701 -3.696349 1.820587 -7.487545 -0.154168 -3.383186 3.144696 -0.006396 0.017405 0.000553 -0.471697 -1.677963 6.253644 -6.510640 6.078178 12.492534 0.000000 0.000000 0.000000 1.168545 -0.999548 3.006092 -5.877541 1.459608 -8.224646 3.982840 7.209399 -41.543734 -1.079640 -42.534648 0.033527 0.000000 0.000000 0.000000 -2.455964 -0.221727 2.711988 19.399721 -5.816107 -19.853067 5.319723 -6.638250 -40.972430 2.546351 30.480382 2.556906 0.000000 0.000000 0.000000 
-1.918439 36.072968 6.830213 -179.879507 6.730570 -179.845656 -3.097350 -3.805906 10.211274 -9.226447 0.958264 -16.184389 14.749529 4.141331 19.638500 1.211531 -0.761363 1.911579 0.000000 0.000000 0.000000 1.188548 -1.370097 9.017584 -0.082485 0.494817 -13.137424 -8.190605 2.941845 13.806877 5.981525 0.944421 8.048155 0.000000 0.000000 0.000000 1.118824 0.190259 -1.798593 -3.757979 1.788967 -7.597873 -0.124367 -3.377625 3.198983 0.006567 0.008804 0.020525 -0.469572 -1.842713 6.314589 -6.356379 6.085437 12.644839 0.000000 0.000000 0.000000 1.189296 -1.036686 3.101763 -6.084658 1.601938 -8.309279 4.833009 7.420703 -41.472045 -1.126414 -42.643487 0.155908 0.000000 0.000000 0.000000 -2.429238 -0.285808 2.737137 19.466312 -5.920505 -19.868575 5.301529 -7.167060 -41.285454 2.524339 30.401452 2.706574 0.000000 0.000000 0.000000 
-1.905743 36.073715 6.773910 -179.902347 6.699402 -179.713246 -3.155433 -3.889053 10.151582 -9.203074 0.824585 -16.163675 14.782252 4.028691 19.708688 1.298035 -0.696688 1.921223 0.000000 0.000000 0.000000 1.127867 -1.320659 8.938097 -0.060946 0.515169 -13.027297 -8.208479 2.626280 13.796529 6.004602 0.974401 7.925907 0.000000 0.000000 0.000000 1.083648 0.124047 -1.946008 -3.818632 1.770458 -7.735257 -0.114645 -3.375327 3.235229 0.007977 -0.002063 0.053056 -0.460526 -1.788839 6.395520 -6.099000 5.806170 12.805582 0.000000 0.000000 0.000000 1.184505 -0.999314 3.184394 -6.331652 1.815841 -8.317731 5.313119 7.723555 -41.405365 -1.123618 -42.916520 0.201354 0.000000 0.000000 0.000000 -2.443634 -0.262375 2.810480 19.519081 -5.869366 -19.999791 5.258865 -7.657877 -41.526915 2.478047 30.389885 2.846270 0.000000 0.000000 0.000000 
-1.896645 36.070744 6.736084 -179.854727 6.722786 -179.736729 -3.130591 -3.860717 10.189152 -9.205310 0.696280 -16.091379 14.796572 3.972517 19.794622 1.383490 -0.620500 1.828731 0.000000 0.000000 0.000000 1.189335 -1.278604 8.910001 -0.052070 0.459195 -12.888108 -8.178697 2.646980 13.867844 6.027886 0.985809 7.817322 0.000000 0.000000 0.000000 1.109722 0.108132 -1.948814 -3.791630 1.807224 -7.825448 -0.091959 -3.364518 3.332783 0.003027 -0.002803 0.043648 -0.433439 -1.764568 6.435857 -5.781147 5.583313 13.053612 0.000000 0.000000 0.000000 1.203112 -0.957912 3.213158 -6.661779 2.046709 -8.357858 5.590131 8.018712 -41.447531 -1.119648 -43.083901 0.212535 0.000000 0.000000 0.000000 -2.427706 -0.248120 2.873638 19.548229 -5.836298 -20.137699 5.317859 -8.070498 -41.812922 2.490140 30.282347 3.016666 0.000000 0.000000 0.000000 
-1.898245 36.066319 6.724169 179.965144 6.556724 -179.724202 -3.340874 -4.006785 10.162062 -9.189986 0.538218 -16.124036 14.867211 3.882862 19.867033 1.428516 -0.585159 1.776315 0.000000 0.000000 0.000000 0.983516 -1.448340 8.875412 -0.079009 0.308569 -12.901060 -8.153624 2.481270 13.921883 6.163062 1.049722 7.772962 0.000000 0.000000 0.000000 0.979290 0.059912 -2.015913 -3.815533 1.830280 -7.889172 -0.131897 -3.355829 3.450620 -0.004213 -0.003284 -0.058025 -0.384260 -1.801625 6.522813 -5.378092 5.347982 13.322405 0.000000 0.000000 0.000000 1.235456 -0.997509 3.341796 -6.945140 2.169276 -8.391830 5.563658 8.374608 -41.627343 -1.101436 -43.328927 0.194726 0.000000 0.000000 0.000000 -2.386957 -0.269780 2.985840 19.509961 -5.817849 -20.041723 5.496443 -8.605463 -42.171067 2.455554 30.307578 3.094404 0.000000 0.000000 0.000000 
-1.906011 36.056015 6.736106 179.963040 6.516907 -179.844195 -3.339009 -3.947609 10.226610 -9.217204 0.482475 -16.099564 14.888342 3.831261 19.933940 1.451570 -0.535889 1.662860 0.000000 0.000000 0.000000 0.995198 -1.484586 8.937303 -0.110113 0.152263 -12.971281 -8.104634 2.610921 14.107299 6.243717 1.037284 7.722290 0.000000 0.000000 0.000000 0.980340 0.096361 -1.807603 -3.714195 1.918189 -7.997071 -0.162191 -3.331164 3.490937 0.060909 0.025047 0.031635 -0.378135 -1.852365 6.445003 -4.937573 5.172939 13.629099 0.000000 0.000000 0.000000 1.214208 -1.020769 3.350721 -7.228232 2.270882 -8.507009 5.300303 8.557922 -41.868462 -1.109503 -43.482326 0.172386 0.000000 0.000000 0.000000 -2.414555 -0.315056 2.907555 19.387808 -5.801372 -19.941738 5.877103 -9.059619 -42.530283 2.462804 30.328987 3.148441 0.000000 0.000000 0.000000 
